# xmcd
#
# Track frame offsets: 
#        150
#        12247
#        25467
#        38380
#        51865
#        63812
#        75757
#        87027
#        98512
#        113267
#        125207
#        135455
#
# Disc length: 1948 seconds
#
# Revision: 4
# Processed by: cddbd v1.5.2PL0 Copyright (c) Steve Scherf et al.
# Submitted via: ExactAudioCopyFreeDBPlugin 1.0
#
DISCID=7d079a0c
DTITLE=Various Artist - Take This Country And Love It
DYEAR=1995
DGENRE=Country
TTITLE0=Joynny Paycheck - Take This Job And Shove It - Johnny Paycheck
TTITLE1=Lynn Anderson - Rose Garden - Lynn Anderson
TTITLE2=Merle Haggard - The Fightin' Side Of Me - Merle Haggard
TTITLE3=David Houston - Almost Persuaded - David Houston
TTITLE4=Donna Fargo - Funny Face - Donna Fargo
TTITLE5=Del Reeves - Girl On A Billboard - Del Reeves
TTITLE6=Wynn Stewart - It's Such A Pretty World Today - Wynn Stewart
TTITLE7=Sammi Smith - Help Me Make It Through The Night - Sammi Smith
TTITLE8=Don Gibson - Woman (Sensuous Woman) - Don Gibson
TTITLE9=Jack Greene - There Goes My Everything - Jack Greene
TTITLE10=Connie Smith - Once A Day - Connie Smith
TTITLE11=Ferlin Husky - Wings Of A Dove - Ferlin Husky
EXTD=
EXTT0=
EXTT1=
EXTT2=
EXTT3=
EXTT4=
EXTT5=
EXTT6=
EXTT7=
EXTT8=
EXTT9=
EXTT10=
EXTT11=
PLAYORDER=
